<svg xmlns="http://www.w3.org/2000/svg" width="1024" height="1024" viewBox="0 0 1024 1024">
  <rect width="1024" height="1024" fill="#20242a"/>
  <image href="reference_master.png" width="1024" height="1024"/>
  <g><circle cx="512" cy="515" r="22" fill="none" stroke="#00e6a8" stroke-width="5"/><line x1="512" y1="515" x2="554" y2="481" stroke="#00e6a8" stroke-width="3"/><text x="560" y="477" font-family="sans-serif" font-size="20" fill="#ffffff">precision_rig</text></g>
<g><circle cx="600" cy="325" r="22" fill="none" stroke="#00e6a8" stroke-width="5"/><line x1="600" y1="325" x2="642" y2="291" stroke="#00e6a8" stroke-width="3"/><text x="648" y="287" font-family="sans-serif" font-size="20" fill="#ffffff">sensor_comms_dome</text></g>
<g><circle cx="300" cy="390" r="22" fill="none" stroke="#00e6a8" stroke-width="5"/><line x1="300" y1="390" x2="342" y2="356" stroke="#00e6a8" stroke-width="3"/><text x="348" y="352" font-family="sans-serif" font-size="20" fill="#ffffff">thermal_upper_left</text></g>
<g><circle cx="650" cy="390" r="22" fill="none" stroke="#00e6a8" stroke-width="5"/><line x1="650" y1="390" x2="692" y2="356" stroke="#00e6a8" stroke-width="3"/><text x="698" y="352" font-family="sans-serif" font-size="20" fill="#ffffff">thermal_upper_right</text></g>
<g><circle cx="300" cy="660" r="22" fill="none" stroke="#00e6a8" stroke-width="5"/><line x1="300" y1="660" x2="342" y2="626" stroke="#00e6a8" stroke-width="3"/><text x="348" y="622" font-family="sans-serif" font-size="20" fill="#ffffff">thermal_lower_left</text></g>
<g><circle cx="650" cy="660" r="22" fill="none" stroke="#00e6a8" stroke-width="5"/><line x1="650" y1="660" x2="692" y2="626" stroke="#00e6a8" stroke-width="3"/><text x="698" y="622" font-family="sans-serif" font-size="20" fill="#ffffff">thermal_lower_right</text></g>
<g><circle cx="135" cy="520" r="22" fill="none" stroke="#00e6a8" stroke-width="5"/><line x1="135" y1="520" x2="177" y2="486" stroke="#00e6a8" stroke-width="3"/><text x="183" y="482" font-family="sans-serif" font-size="20" fill="#ffffff">material_interface_left</text></g>
<g><circle cx="875" cy="520" r="22" fill="none" stroke="#00e6a8" stroke-width="5"/><line x1="875" y1="520" x2="917" y2="486" stroke="#00e6a8" stroke-width="3"/><text x="923" y="482" font-family="sans-serif" font-size="20" fill="#ffffff">material_interface_right</text></g>
  <title>Empire high-tech hub reference anchor review</title>
</svg>
