<svg xmlns="http://www.w3.org/2000/svg" width="1024" height="1024" viewBox="0 0 1024 1024">
  <rect width="1024" height="1024" fill="#20242a"/>
  <image href="reference_master.png" width="1024" height="1024"/>
  <g><circle cx="512" cy="555" r="22" fill="none" stroke="#00e6a8" stroke-width="5"/><line x1="512" y1="555" x2="554" y2="521" stroke="#00e6a8" stroke-width="3"/><text x="560" y="517" font-family="sans-serif" font-size="20" fill="#ffffff">service_core</text></g>
<g><circle cx="340" cy="250" r="22" fill="none" stroke="#00e6a8" stroke-width="5"/><line x1="340" y1="250" x2="382" y2="216" stroke="#00e6a8" stroke-width="3"/><text x="388" y="212" font-family="sans-serif" font-size="20" fill="#ffffff">process_tower_left</text></g>
<g><circle cx="690" cy="250" r="22" fill="none" stroke="#00e6a8" stroke-width="5"/><line x1="690" y1="250" x2="732" y2="216" stroke="#00e6a8" stroke-width="3"/><text x="738" y="212" font-family="sans-serif" font-size="20" fill="#ffffff">process_tower_right</text></g>
<g><circle cx="512" cy="360" r="22" fill="none" stroke="#00e6a8" stroke-width="5"/><line x1="512" y1="360" x2="554" y2="326" stroke="#00e6a8" stroke-width="3"/><text x="560" y="322" font-family="sans-serif" font-size="20" fill="#ffffff">process_tower_center</text></g>
<g><circle cx="205" cy="520" r="22" fill="none" stroke="#00e6a8" stroke-width="5"/><line x1="205" y1="520" x2="247" y2="486" stroke="#00e6a8" stroke-width="3"/><text x="253" y="482" font-family="sans-serif" font-size="20" fill="#ffffff">input_process_vessels</text></g>
<g><circle cx="820" cy="520" r="22" fill="none" stroke="#00e6a8" stroke-width="5"/><line x1="820" y1="520" x2="862" y2="486" stroke="#00e6a8" stroke-width="3"/><text x="868" y="482" font-family="sans-serif" font-size="20" fill="#ffffff">output_process_vessels</text></g>
<g><circle cx="512" cy="710" r="22" fill="none" stroke="#00e6a8" stroke-width="5"/><line x1="512" y1="710" x2="554" y2="676" stroke="#00e6a8" stroke-width="3"/><text x="560" y="672" font-family="sans-serif" font-size="20" fill="#ffffff">lower_service_module</text></g>
  <title>Empire refinery complex reference anchor review</title>
</svg>
